<mxfile host="app.diagrams.net" modified="2023-03-06T14:27:05.907Z" agent="5.0 (Windows NT 10.0; Win64; x64) AppleWebKit/537.36 (KHTML, like Gecko) Chrome/110.0.0.0 Safari/537.36" etag="R3xf6lpcj_rZdhDr3uoU" version="21.0.2" type="github">
  <diagram id="prtHgNgQTEPvFCAcTncT" name="Page-1">
    <mxGraphModel dx="874" dy="451" grid="1" gridSize="10" guides="1" tooltips="1" connect="1" arrows="1" fold="1" page="1" pageScale="1" pageWidth="827" pageHeight="1169" math="0" shadow="0">
      <root>
        <mxCell id="0" />
        <mxCell id="1" parent="0" />
        <mxCell id="RfCdczuySnNLCMynkId8-2" value="" style="swimlane;startSize=0;" vertex="1" parent="1">
          <mxGeometry x="10" y="40" width="780" height="850" as="geometry" />
        </mxCell>
        <mxCell id="RfCdczuySnNLCMynkId8-3" value="&lt;font style=&quot;vertical-align: inherit;&quot;&gt;&lt;font style=&quot;vertical-align: inherit;&quot;&gt;robot&lt;/font&gt;&lt;/font&gt;" style="rounded=0;whiteSpace=wrap;html=1;" vertex="1" parent="RfCdczuySnNLCMynkId8-2">
          <mxGeometry x="303" y="20" width="74" height="40" as="geometry" />
        </mxCell>
        <mxCell id="RfCdczuySnNLCMynkId8-13" style="edgeStyle=orthogonalEdgeStyle;rounded=0;orthogonalLoop=1;jettySize=auto;html=1;exitX=0.5;exitY=0;exitDx=0;exitDy=0;" edge="1" parent="RfCdczuySnNLCMynkId8-2" source="RfCdczuySnNLCMynkId8-6">
          <mxGeometry relative="1" as="geometry">
            <mxPoint x="340" y="60" as="targetPoint" />
          </mxGeometry>
        </mxCell>
        <mxCell id="RfCdczuySnNLCMynkId8-42" value="" style="edgeStyle=orthogonalEdgeStyle;rounded=0;orthogonalLoop=1;jettySize=auto;html=1;" edge="1" parent="RfCdczuySnNLCMynkId8-2" source="RfCdczuySnNLCMynkId8-6" target="RfCdczuySnNLCMynkId8-41">
          <mxGeometry relative="1" as="geometry" />
        </mxCell>
        <mxCell id="RfCdczuySnNLCMynkId8-6" value="&lt;font style=&quot;vertical-align: inherit;&quot;&gt;&lt;font style=&quot;vertical-align: inherit;&quot;&gt;&lt;font style=&quot;vertical-align: inherit;&quot;&gt;&lt;font style=&quot;vertical-align: inherit;&quot;&gt;&lt;font style=&quot;vertical-align: inherit;&quot;&gt;&lt;font style=&quot;vertical-align: inherit;&quot;&gt;后端-机器人接口&lt;/font&gt;&lt;/font&gt;&lt;/font&gt;&lt;/font&gt;&lt;/font&gt;&lt;/font&gt;" style="rounded=0;whiteSpace=wrap;html=1;" vertex="1" parent="RfCdczuySnNLCMynkId8-2">
          <mxGeometry x="70" y="100" width="90" height="40" as="geometry" />
        </mxCell>
        <mxCell id="RfCdczuySnNLCMynkId8-14" style="edgeStyle=orthogonalEdgeStyle;rounded=0;orthogonalLoop=1;jettySize=auto;html=1;entryX=0.5;entryY=1;entryDx=0;entryDy=0;" edge="1" parent="RfCdczuySnNLCMynkId8-2" source="RfCdczuySnNLCMynkId8-7" target="RfCdczuySnNLCMynkId8-3">
          <mxGeometry relative="1" as="geometry">
            <mxPoint x="340" y="80" as="targetPoint" />
            <Array as="points">
              <mxPoint x="236" y="80" />
              <mxPoint x="340" y="80" />
            </Array>
          </mxGeometry>
        </mxCell>
        <mxCell id="RfCdczuySnNLCMynkId8-39" style="edgeStyle=orthogonalEdgeStyle;rounded=0;orthogonalLoop=1;jettySize=auto;html=1;entryX=0.5;entryY=0;entryDx=0;entryDy=0;" edge="1" parent="RfCdczuySnNLCMynkId8-2" source="RfCdczuySnNLCMynkId8-7" target="RfCdczuySnNLCMynkId8-38">
          <mxGeometry relative="1" as="geometry" />
        </mxCell>
        <mxCell id="RfCdczuySnNLCMynkId8-7" value="&lt;font style=&quot;vertical-align: inherit;&quot;&gt;&lt;font style=&quot;vertical-align: inherit;&quot;&gt;&lt;font style=&quot;vertical-align: inherit;&quot;&gt;&lt;font style=&quot;vertical-align: inherit;&quot;&gt;&lt;font style=&quot;vertical-align: inherit;&quot;&gt;&lt;font style=&quot;vertical-align: inherit;&quot;&gt;&lt;font style=&quot;vertical-align: inherit;&quot;&gt;&lt;font style=&quot;vertical-align: inherit;&quot;&gt;&lt;font style=&quot;vertical-align: inherit;&quot;&gt;&lt;font style=&quot;vertical-align: inherit;&quot;&gt;后端-用户后台&lt;/font&gt;&lt;/font&gt;&lt;/font&gt;&lt;/font&gt;&lt;/font&gt;&lt;/font&gt;&lt;/font&gt;&lt;/font&gt;&lt;/font&gt;&lt;/font&gt;" style="rounded=0;whiteSpace=wrap;html=1;" vertex="1" parent="RfCdczuySnNLCMynkId8-2">
          <mxGeometry x="190" y="100" width="80" height="40" as="geometry" />
        </mxCell>
        <mxCell id="RfCdczuySnNLCMynkId8-17" style="edgeStyle=orthogonalEdgeStyle;rounded=0;orthogonalLoop=1;jettySize=auto;html=1;entryX=0.5;entryY=1;entryDx=0;entryDy=0;startArrow=none;" edge="1" parent="RfCdczuySnNLCMynkId8-2" source="RfCdczuySnNLCMynkId8-30" target="RfCdczuySnNLCMynkId8-3">
          <mxGeometry relative="1" as="geometry" />
        </mxCell>
        <mxCell id="RfCdczuySnNLCMynkId8-32" style="edgeStyle=orthogonalEdgeStyle;rounded=0;orthogonalLoop=1;jettySize=auto;html=1;" edge="1" parent="RfCdczuySnNLCMynkId8-2" source="RfCdczuySnNLCMynkId8-8" target="RfCdczuySnNLCMynkId8-3">
          <mxGeometry relative="1" as="geometry">
            <Array as="points">
              <mxPoint x="440" y="80" />
              <mxPoint x="340" y="80" />
            </Array>
          </mxGeometry>
        </mxCell>
        <mxCell id="RfCdczuySnNLCMynkId8-36" style="edgeStyle=orthogonalEdgeStyle;rounded=0;orthogonalLoop=1;jettySize=auto;html=1;entryX=0.5;entryY=0;entryDx=0;entryDy=0;" edge="1" parent="RfCdczuySnNLCMynkId8-2" source="RfCdczuySnNLCMynkId8-8" target="RfCdczuySnNLCMynkId8-35">
          <mxGeometry relative="1" as="geometry">
            <Array as="points">
              <mxPoint x="440" y="160" />
              <mxPoint x="498" y="160" />
            </Array>
          </mxGeometry>
        </mxCell>
        <mxCell id="RfCdczuySnNLCMynkId8-8" value="&lt;font style=&quot;vertical-align: inherit;&quot;&gt;&lt;font style=&quot;vertical-align: inherit;&quot;&gt;前端-用户后台&lt;/font&gt;&lt;/font&gt;" style="rounded=0;whiteSpace=wrap;html=1;" vertex="1" parent="RfCdczuySnNLCMynkId8-2">
          <mxGeometry x="400" y="100" width="80" height="40" as="geometry" />
        </mxCell>
        <mxCell id="RfCdczuySnNLCMynkId8-18" style="edgeStyle=orthogonalEdgeStyle;rounded=0;orthogonalLoop=1;jettySize=auto;html=1;entryX=0.5;entryY=1;entryDx=0;entryDy=0;" edge="1" parent="RfCdczuySnNLCMynkId8-2" source="RfCdczuySnNLCMynkId8-9" target="RfCdczuySnNLCMynkId8-3">
          <mxGeometry relative="1" as="geometry">
            <Array as="points">
              <mxPoint x="521" y="80" />
              <mxPoint x="340" y="80" />
            </Array>
          </mxGeometry>
        </mxCell>
        <mxCell id="RfCdczuySnNLCMynkId8-37" style="edgeStyle=orthogonalEdgeStyle;rounded=0;orthogonalLoop=1;jettySize=auto;html=1;entryX=0.5;entryY=0;entryDx=0;entryDy=0;" edge="1" parent="RfCdczuySnNLCMynkId8-2" source="RfCdczuySnNLCMynkId8-9" target="RfCdczuySnNLCMynkId8-35">
          <mxGeometry relative="1" as="geometry">
            <Array as="points">
              <mxPoint x="552" y="160" />
              <mxPoint x="498" y="160" />
            </Array>
          </mxGeometry>
        </mxCell>
        <mxCell id="RfCdczuySnNLCMynkId8-9" value="&lt;font style=&quot;vertical-align: inherit;&quot;&gt;&lt;font style=&quot;vertical-align: inherit;&quot;&gt;前端-管理后台&lt;/font&gt;&lt;/font&gt;" style="rounded=0;whiteSpace=wrap;html=1;" vertex="1" parent="RfCdczuySnNLCMynkId8-2">
          <mxGeometry x="510" y="100" width="84" height="40" as="geometry" />
        </mxCell>
        <mxCell id="RfCdczuySnNLCMynkId8-40" style="edgeStyle=orthogonalEdgeStyle;rounded=0;orthogonalLoop=1;jettySize=auto;html=1;entryX=0.5;entryY=0;entryDx=0;entryDy=0;" edge="1" parent="RfCdczuySnNLCMynkId8-2" source="RfCdczuySnNLCMynkId8-30" target="RfCdczuySnNLCMynkId8-38">
          <mxGeometry relative="1" as="geometry" />
        </mxCell>
        <mxCell id="RfCdczuySnNLCMynkId8-30" value="&lt;font style=&quot;vertical-align: inherit;&quot;&gt;&lt;font style=&quot;vertical-align: inherit;&quot;&gt;&lt;font style=&quot;vertical-align: inherit;&quot;&gt;&lt;font style=&quot;vertical-align: inherit;&quot;&gt;&lt;font style=&quot;vertical-align: inherit;&quot;&gt;&lt;font style=&quot;vertical-align: inherit;&quot;&gt;&lt;font style=&quot;vertical-align: inherit;&quot;&gt;&lt;font style=&quot;vertical-align: inherit;&quot;&gt;&lt;font style=&quot;vertical-align: inherit;&quot;&gt;&lt;font style=&quot;vertical-align: inherit;&quot;&gt;&lt;font style=&quot;vertical-align: inherit;&quot;&gt;&lt;font style=&quot;vertical-align: inherit;&quot;&gt;后端-管理后台&lt;/font&gt;&lt;/font&gt;&lt;/font&gt;&lt;/font&gt;&lt;/font&gt;&lt;/font&gt;&lt;/font&gt;&lt;/font&gt;&lt;/font&gt;&lt;/font&gt;&lt;/font&gt;&lt;/font&gt;" style="rounded=0;whiteSpace=wrap;html=1;" vertex="1" parent="RfCdczuySnNLCMynkId8-2">
          <mxGeometry x="300" y="100" width="80" height="40" as="geometry" />
        </mxCell>
        <mxCell id="RfCdczuySnNLCMynkId8-46" value="" style="edgeStyle=orthogonalEdgeStyle;rounded=0;orthogonalLoop=1;jettySize=auto;html=1;" edge="1" parent="RfCdczuySnNLCMynkId8-2" source="RfCdczuySnNLCMynkId8-35" target="RfCdczuySnNLCMynkId8-45">
          <mxGeometry relative="1" as="geometry" />
        </mxCell>
        <mxCell id="RfCdczuySnNLCMynkId8-35" value="前端-后台" style="rounded=0;whiteSpace=wrap;html=1;" vertex="1" parent="RfCdczuySnNLCMynkId8-2">
          <mxGeometry x="446" y="180" width="104" height="40" as="geometry" />
        </mxCell>
        <mxCell id="RfCdczuySnNLCMynkId8-44" value="" style="edgeStyle=orthogonalEdgeStyle;rounded=0;orthogonalLoop=1;jettySize=auto;html=1;" edge="1" parent="RfCdczuySnNLCMynkId8-2" target="RfCdczuySnNLCMynkId8-43">
          <mxGeometry relative="1" as="geometry">
            <mxPoint x="254" y="215" as="sourcePoint" />
            <Array as="points">
              <mxPoint x="288" y="215" />
            </Array>
          </mxGeometry>
        </mxCell>
        <mxCell id="RfCdczuySnNLCMynkId8-38" value="&lt;font style=&quot;vertical-align: inherit;&quot;&gt;&lt;font style=&quot;vertical-align: inherit;&quot;&gt;后端-后台&lt;/font&gt;&lt;/font&gt;" style="rounded=0;whiteSpace=wrap;html=1;" vertex="1" parent="RfCdczuySnNLCMynkId8-2">
          <mxGeometry x="236" y="180" width="104" height="40" as="geometry" />
        </mxCell>
        <mxCell id="RfCdczuySnNLCMynkId8-41" value="&lt;font style=&quot;vertical-align: inherit;&quot;&gt;&lt;font style=&quot;vertical-align: inherit;&quot;&gt;&lt;font style=&quot;vertical-align: inherit;&quot;&gt;&lt;font style=&quot;vertical-align: inherit;&quot;&gt;&lt;font style=&quot;vertical-align: inherit;&quot;&gt;&lt;font style=&quot;vertical-align: inherit;&quot;&gt;&lt;font style=&quot;vertical-align: inherit;&quot;&gt;&lt;font style=&quot;vertical-align: inherit;&quot;&gt;&lt;font style=&quot;vertical-align: inherit;&quot;&gt;&lt;font style=&quot;vertical-align: inherit;&quot;&gt;&lt;font style=&quot;vertical-align: inherit;&quot;&gt;&lt;font style=&quot;vertical-align: inherit;&quot;&gt;robot-api&lt;/font&gt;&lt;/font&gt;&lt;/font&gt;&lt;/font&gt;&lt;/font&gt;&lt;/font&gt;&lt;/font&gt;&lt;/font&gt;&lt;/font&gt;&lt;/font&gt;&lt;/font&gt;&lt;/font&gt;" style="rounded=0;whiteSpace=wrap;html=1;" vertex="1" parent="RfCdczuySnNLCMynkId8-2">
          <mxGeometry x="70" y="290" width="90" height="40" as="geometry" />
        </mxCell>
        <mxCell id="RfCdczuySnNLCMynkId8-43" value="&lt;font style=&quot;vertical-align: inherit;&quot;&gt;&lt;font style=&quot;vertical-align: inherit;&quot;&gt;&lt;font style=&quot;vertical-align: inherit;&quot;&gt;&lt;font style=&quot;vertical-align: inherit;&quot;&gt;&lt;font style=&quot;vertical-align: inherit;&quot;&gt;&lt;font style=&quot;vertical-align: inherit;&quot;&gt;robot-admin&lt;/font&gt;&lt;/font&gt;&lt;/font&gt;&lt;/font&gt;&lt;/font&gt;&lt;/font&gt;" style="rounded=0;whiteSpace=wrap;html=1;" vertex="1" parent="RfCdczuySnNLCMynkId8-2">
          <mxGeometry x="236" y="290" width="104" height="40" as="geometry" />
        </mxCell>
        <mxCell id="RfCdczuySnNLCMynkId8-45" value="&lt;font style=&quot;vertical-align: inherit;&quot;&gt;&lt;font style=&quot;vertical-align: inherit;&quot;&gt;&lt;font style=&quot;vertical-align: inherit;&quot;&gt;&lt;font style=&quot;vertical-align: inherit;&quot;&gt;vue：robot-admin&lt;/font&gt;&lt;/font&gt;&lt;br&gt;&lt;/font&gt;&lt;/font&gt;" style="rounded=0;whiteSpace=wrap;html=1;" vertex="1" parent="RfCdczuySnNLCMynkId8-2">
          <mxGeometry x="446" y="290" width="104" height="40" as="geometry" />
        </mxCell>
        <mxCell id="RfCdczuySnNLCMynkId8-53" value="&lt;font style=&quot;vertical-align: inherit;&quot;&gt;&lt;font style=&quot;vertical-align: inherit;&quot;&gt;robot-parent&lt;/font&gt;&lt;/font&gt;" style="rounded=0;whiteSpace=wrap;html=1;" vertex="1" parent="RfCdczuySnNLCMynkId8-2">
          <mxGeometry x="317" y="470" width="74" height="40" as="geometry" />
        </mxCell>
        <mxCell id="RfCdczuySnNLCMynkId8-68" style="edgeStyle=orthogonalEdgeStyle;rounded=0;orthogonalLoop=1;jettySize=auto;html=1;entryX=0.5;entryY=1;entryDx=0;entryDy=0;" edge="1" parent="RfCdczuySnNLCMynkId8-2" source="RfCdczuySnNLCMynkId8-54" target="RfCdczuySnNLCMynkId8-53">
          <mxGeometry relative="1" as="geometry">
            <Array as="points">
              <mxPoint x="136" y="530" />
              <mxPoint x="354" y="530" />
            </Array>
          </mxGeometry>
        </mxCell>
        <mxCell id="RfCdczuySnNLCMynkId8-54" value="&lt;font style=&quot;vertical-align: inherit;&quot;&gt;&lt;font style=&quot;vertical-align: inherit;&quot;&gt;&lt;font style=&quot;vertical-align: inherit;&quot;&gt;&lt;font style=&quot;vertical-align: inherit;&quot;&gt;&lt;font style=&quot;vertical-align: inherit;&quot;&gt;&lt;font style=&quot;vertical-align: inherit;&quot;&gt;&lt;font style=&quot;vertical-align: inherit;&quot;&gt;&lt;font style=&quot;vertical-align: inherit;&quot;&gt;&lt;font style=&quot;vertical-align: inherit;&quot;&gt;&lt;font style=&quot;vertical-align: inherit;&quot;&gt;&lt;font style=&quot;vertical-align: inherit;&quot;&gt;&lt;font style=&quot;vertical-align: inherit;&quot;&gt;api&lt;/font&gt;&lt;/font&gt;&lt;/font&gt;&lt;/font&gt;&lt;/font&gt;&lt;/font&gt;&lt;/font&gt;&lt;/font&gt;&lt;/font&gt;&lt;/font&gt;&lt;/font&gt;&lt;/font&gt;" style="rounded=0;whiteSpace=wrap;html=1;" vertex="1" parent="RfCdczuySnNLCMynkId8-2">
          <mxGeometry x="91" y="550" width="90" height="40" as="geometry" />
        </mxCell>
        <mxCell id="RfCdczuySnNLCMynkId8-65" value="" style="edgeStyle=orthogonalEdgeStyle;rounded=0;orthogonalLoop=1;jettySize=auto;html=1;" edge="1" parent="RfCdczuySnNLCMynkId8-2" source="RfCdczuySnNLCMynkId8-59" target="RfCdczuySnNLCMynkId8-53">
          <mxGeometry relative="1" as="geometry" />
        </mxCell>
        <mxCell id="RfCdczuySnNLCMynkId8-59" value="&lt;font style=&quot;vertical-align: inherit;&quot;&gt;&lt;font style=&quot;vertical-align: inherit;&quot;&gt;&lt;font style=&quot;vertical-align: inherit;&quot;&gt;&lt;font style=&quot;vertical-align: inherit;&quot;&gt;&lt;font style=&quot;vertical-align: inherit;&quot;&gt;&lt;font style=&quot;vertical-align: inherit;&quot;&gt;admin&lt;/font&gt;&lt;/font&gt;&lt;/font&gt;&lt;/font&gt;&lt;/font&gt;&lt;/font&gt;" style="rounded=0;whiteSpace=wrap;html=1;" vertex="1" parent="RfCdczuySnNLCMynkId8-2">
          <mxGeometry x="236" y="550" width="104" height="40" as="geometry" />
        </mxCell>
        <mxCell id="RfCdczuySnNLCMynkId8-62" value="" style="edgeStyle=orthogonalEdgeStyle;rounded=0;orthogonalLoop=1;jettySize=auto;html=1;" edge="1" parent="RfCdczuySnNLCMynkId8-2" source="RfCdczuySnNLCMynkId8-60" target="RfCdczuySnNLCMynkId8-61">
          <mxGeometry relative="1" as="geometry" />
        </mxCell>
        <mxCell id="RfCdczuySnNLCMynkId8-64" value="" style="edgeStyle=orthogonalEdgeStyle;rounded=0;orthogonalLoop=1;jettySize=auto;html=1;" edge="1" parent="RfCdczuySnNLCMynkId8-2" source="RfCdczuySnNLCMynkId8-60" target="RfCdczuySnNLCMynkId8-63">
          <mxGeometry relative="1" as="geometry" />
        </mxCell>
        <mxCell id="RfCdczuySnNLCMynkId8-69" style="edgeStyle=orthogonalEdgeStyle;rounded=0;orthogonalLoop=1;jettySize=auto;html=1;entryX=0.5;entryY=1;entryDx=0;entryDy=0;" edge="1" parent="RfCdczuySnNLCMynkId8-2" source="RfCdczuySnNLCMynkId8-60" target="RfCdczuySnNLCMynkId8-53">
          <mxGeometry relative="1" as="geometry">
            <Array as="points">
              <mxPoint x="457" y="530" />
              <mxPoint x="354" y="530" />
            </Array>
          </mxGeometry>
        </mxCell>
        <mxCell id="RfCdczuySnNLCMynkId8-60" value="&lt;font style=&quot;vertical-align: inherit;&quot;&gt;&lt;font style=&quot;vertical-align: inherit;&quot;&gt;common&lt;/font&gt;&lt;/font&gt;" style="rounded=0;whiteSpace=wrap;html=1;" vertex="1" parent="RfCdczuySnNLCMynkId8-2">
          <mxGeometry x="420" y="550" width="74" height="40" as="geometry" />
        </mxCell>
        <mxCell id="RfCdczuySnNLCMynkId8-61" value="&lt;font style=&quot;vertical-align: inherit;&quot;&gt;&lt;font style=&quot;vertical-align: inherit;&quot;&gt;common-util&lt;/font&gt;&lt;/font&gt;" style="rounded=0;whiteSpace=wrap;html=1;" vertex="1" parent="RfCdczuySnNLCMynkId8-2">
          <mxGeometry x="480" y="630" width="74" height="40" as="geometry" />
        </mxCell>
        <mxCell id="RfCdczuySnNLCMynkId8-63" value="&lt;font style=&quot;vertical-align: inherit;&quot;&gt;&lt;font style=&quot;vertical-align: inherit;&quot;&gt;service-util&lt;br&gt;&lt;/font&gt;&lt;/font&gt;" style="rounded=0;whiteSpace=wrap;html=1;" vertex="1" parent="RfCdczuySnNLCMynkId8-2">
          <mxGeometry x="360" y="630" width="74" height="40" as="geometry" />
        </mxCell>
        <mxCell id="RfCdczuySnNLCMynkId8-71" style="edgeStyle=orthogonalEdgeStyle;rounded=0;orthogonalLoop=1;jettySize=auto;html=1;entryX=0.5;entryY=1;entryDx=0;entryDy=0;" edge="1" parent="RfCdczuySnNLCMynkId8-2" source="RfCdczuySnNLCMynkId8-70" target="RfCdczuySnNLCMynkId8-53">
          <mxGeometry relative="1" as="geometry">
            <Array as="points">
              <mxPoint x="615" y="530" />
              <mxPoint x="354" y="530" />
            </Array>
          </mxGeometry>
        </mxCell>
        <mxCell id="RfCdczuySnNLCMynkId8-70" value="&lt;font style=&quot;vertical-align: inherit;&quot;&gt;&lt;font style=&quot;vertical-align: inherit;&quot;&gt;&lt;font style=&quot;vertical-align: inherit;&quot;&gt;&lt;font style=&quot;vertical-align: inherit;&quot;&gt;&lt;font style=&quot;vertical-align: inherit;&quot;&gt;&lt;font style=&quot;vertical-align: inherit;&quot;&gt;&lt;font style=&quot;vertical-align: inherit;&quot;&gt;&lt;font style=&quot;vertical-align: inherit;&quot;&gt;&lt;font style=&quot;vertical-align: inherit;&quot;&gt;&lt;font style=&quot;vertical-align: inherit;&quot;&gt;&lt;font style=&quot;vertical-align: inherit;&quot;&gt;&lt;font style=&quot;vertical-align: inherit;&quot;&gt;model&lt;br&gt;&lt;/font&gt;&lt;/font&gt;&lt;/font&gt;&lt;/font&gt;&lt;/font&gt;&lt;/font&gt;&lt;/font&gt;&lt;/font&gt;&lt;/font&gt;&lt;/font&gt;&lt;/font&gt;&lt;/font&gt;" style="rounded=0;whiteSpace=wrap;html=1;" vertex="1" parent="RfCdczuySnNLCMynkId8-2">
          <mxGeometry x="570" y="550" width="90" height="40" as="geometry" />
        </mxCell>
      </root>
    </mxGraphModel>
  </diagram>
</mxfile>
